<svg width="24" height="24" viewBox="0 0 24 24" fill="none" xmlns="http://www.w3.org/2000/svg">
<g clip-path="url(#clip0_2037_64)">
<path d="M22.3752 3.78504C20.8793 2.93355 19.2339 2.37715 17.5282 2.14604C17.27 1.64912 16.9106 1.21174 16.4732 0.862043C16.0022 0.487472 15.452 0.225014 14.8645 0.094552C14.277 -0.03591 13.6675 -0.0309545 13.0822 0.109043C11.8312 0.424716 10.6179 0.874313 9.46321 1.45004C8.64353 1.06032 7.72799 0.918124 6.82871 1.04086C5.92944 1.16359 5.08548 1.54593 4.40021 2.14104C4.03321 2.45604 3.66421 2.78504 3.30021 3.12404C2.91821 3.48304 2.52921 3.89104 2.14121 4.33404C1.65505 4.88986 1.3081 5.55336 1.129 6.26974C0.949905 6.98612 0.943807 7.73484 1.11121 8.45404C1.18849 8.79354 1.30285 9.12352 1.45221 9.43804C0.872574 10.6009 0.419316 11.8225 0.100211 13.082C-0.040387 13.6673 -0.0456438 14.277 0.0848403 14.8646C0.215324 15.4522 0.478112 16.0023 0.853211 16.473C1.20655 16.915 1.64964 17.277 2.15321 17.535C2.38493 19.2382 2.94096 20.8812 3.79121 22.375C4.1211 22.9677 4.63246 23.4388 5.25009 23.719C5.86771 23.9993 6.55898 24.074 7.22221 23.932C7.90826 23.7962 8.53241 23.4432 9.00241 22.9253C9.47242 22.4074 9.76335 21.752 9.83221 21.056C10.0189 19.7687 10.3572 18.5079 10.8402 17.3C10.8402 17.3 11.3852 16.964 11.6342 16.761C12.2338 16.2582 12.6593 15.5789 12.8502 14.82C13.3125 14.667 13.7329 14.4085 14.0782 14.065C14.4145 13.7228 14.6689 13.3087 14.8222 12.854C15.5785 12.6622 16.2551 12.2371 16.7562 11.639C16.9562 11.39 17.2962 10.844 17.2962 10.844C18.5014 10.3481 19.7649 10.0077 21.0562 9.83104C21.7522 9.76218 22.4076 9.47125 22.9255 9.00124C23.4434 8.53124 23.7963 7.9071 23.9322 7.22104C24.0765 6.55704 24.0029 5.86424 23.7224 5.24533C23.442 4.62642 22.9696 4.11435 22.3752 3.78504ZM7.83921 20.833C7.81514 21.1088 7.70188 21.3693 7.51658 21.575C7.33128 21.7807 7.08401 21.9204 6.81221 21.973C6.5621 22.03 6.30021 22.003 6.06691 21.8964C5.83362 21.7898 5.64186 21.6094 5.52121 21.383C4.91981 20.3298 4.48882 19.188 4.24421 18H8.14421C8.25321 18 8.35921 17.978 8.46721 17.972C8.18121 18.855 7.83921 20.829 7.83921 20.833ZM10.3692 15.207C9.74135 15.719 8.95632 15.999 8.14621 16H4.00021C3.69602 16.0007 3.39568 15.932 3.12206 15.799C2.84844 15.6661 2.60875 15.4726 2.42121 15.233C2.23415 14.9987 2.10297 14.7247 2.03765 14.4321C1.97232 14.1394 1.97457 13.8357 2.04421 13.544C2.24441 12.7367 2.51202 11.9476 2.84421 11.185C3.15293 11.4266 3.49094 11.6282 3.85021 11.785L10.5272 14.709C10.5892 14.738 10.6552 14.749 10.7182 14.773C10.6287 14.9374 10.5105 15.0844 10.3692 15.207ZM12.6542 12.655C12.4871 12.8245 12.2716 12.9379 12.0374 12.9799C11.8031 13.0218 11.5617 12.99 11.3462 12.889L4.65321 9.95804C4.25415 9.7832 3.90234 9.51604 3.62677 9.17858C3.3512 8.84111 3.15976 8.443 3.06821 8.01704C2.97116 7.60415 2.97368 7.17409 3.07557 6.76236C3.17746 6.35063 3.37579 5.96902 3.65421 5.64904C4.00021 5.25504 4.34221 4.89504 4.67721 4.58004C5.01221 4.26504 5.35921 3.95504 5.70421 3.66004C6.0226 3.38295 6.40183 3.18481 6.81113 3.08172C7.22043 2.97863 7.64827 2.97349 8.05993 3.06671C8.47159 3.15994 8.85548 3.3489 9.18043 3.61826C9.50539 3.88763 9.76227 4.22981 9.93021 4.61704L12.8942 11.307C12.9934 11.53 13.0235 11.7776 12.9807 12.0178C12.938 12.2581 12.8242 12.48 12.6542 12.655ZM16.0002 8.14604C15.9995 8.95604 15.7198 9.74109 15.2082 10.369C15.0913 10.5044 14.9524 10.619 14.7972 10.708C14.7712 10.638 14.7522 10.566 14.7222 10.497L11.7592 3.80804C11.6094 3.46843 11.4208 3.1473 11.1972 2.85104C11.956 2.51969 12.741 2.2521 13.5442 2.05104C13.8359 1.98125 14.1396 1.97893 14.4323 2.04426C14.725 2.10959 14.9989 2.24085 15.2332 2.42804C15.4733 2.61599 15.6672 2.85633 15.8001 3.13069C15.933 3.40506 16.0015 3.70618 16.0002 4.01104V8.14604ZM21.9732 6.81204C21.9206 7.08385 21.7809 7.33111 21.5752 7.51641C21.3695 7.70171 21.109 7.81497 20.8332 7.83904C20.8332 7.83904 18.8552 8.18104 17.9722 8.46904C17.9792 8.36104 18.0002 8.25504 18.0002 8.14604V4.24604C19.1882 4.49065 20.3299 4.92164 21.3832 5.52304C21.6088 5.64398 21.7887 5.83546 21.8952 6.06823C22.0017 6.30099 22.0291 6.56224 21.9732 6.81204Z" fill="#858689"/>
</g>
<defs>
<clipPath id="clip0_2037_64">
<rect width="24" height="24" fill="white"/>
</clipPath>
</defs>
</svg>
