<svg width="24" height="24" viewBox="0 0 24 24" fill="none" xmlns="http://www.w3.org/2000/svg">
<g clip-path="url(#clip0_2037_60)">
<path d="M19.5 10H19V9C19 8.20435 18.6839 7.44129 18.1213 6.87868C17.5587 6.31607 16.7957 6 16 6H4C3.20435 6 2.44129 6.31607 1.87868 6.87868C1.31607 7.44129 1 8.20435 1 9V19C1.00159 20.3256 1.52888 21.5964 2.46622 22.5338C3.40356 23.4711 4.67441 23.9984 6 24H14C15.1522 23.9985 16.2687 23.5999 17.1613 22.8713C18.0538 22.1427 18.6679 21.1286 18.9 20C19.4046 20.0709 19.9185 20.0338 20.4078 19.8912C20.897 19.7487 21.3504 19.5039 21.7379 19.173C22.1255 18.8422 22.4384 18.4328 22.656 17.972C22.8735 17.5112 22.9908 17.0095 23 16.5V13.5C23 12.5717 22.6313 11.6815 21.9749 11.0251C21.3185 10.3687 20.4283 10 19.5 10ZM14 22H6C5.20435 22 4.44129 21.6839 3.87868 21.1213C3.31607 20.5587 3 19.7956 3 19V9C3 8.73478 3.10536 8.48043 3.29289 8.29289C3.48043 8.10536 3.73478 8 4 8H16C16.2652 8 16.5196 8.10536 16.7071 8.29289C16.8946 8.48043 17 8.73478 17 9V19C17 19.7956 16.6839 20.5587 16.1213 21.1213C15.5587 21.6839 14.7957 22 14 22ZM21 16.5C20.9889 16.7386 20.9251 16.9718 20.8133 17.1829C20.7015 17.394 20.5445 17.5778 20.3534 17.7212C20.1623 17.8645 19.9418 17.9638 19.7079 18.012C19.4739 18.0602 19.2322 18.0561 19 18V12C19.2322 11.9439 19.4739 11.9398 19.7079 11.988C19.9418 12.0362 20.1623 12.1355 20.3534 12.2788C20.5445 12.4222 20.7015 12.606 20.8133 12.8171C20.9251 13.0282 20.9889 13.2614 21 13.5V16.5ZM9 3V1C9 0.734784 9.10536 0.48043 9.29289 0.292893C9.48043 0.105357 9.73478 0 10 0C10.2652 0 10.5196 0.105357 10.7071 0.292893C10.8946 0.48043 11 0.734784 11 1V3C11 3.26522 10.8946 3.51957 10.7071 3.70711C10.5196 3.89464 10.2652 4 10 4C9.73478 4 9.48043 3.89464 9.29289 3.70711C9.10536 3.51957 9 3.26522 9 3ZM13 3V1C13 0.734784 13.1054 0.48043 13.2929 0.292893C13.4804 0.105357 13.7348 0 14 0C14.2652 0 14.5196 0.105357 14.7071 0.292893C14.8946 0.48043 15 0.734784 15 1V3C15 3.26522 14.8946 3.51957 14.7071 3.70711C14.5196 3.89464 14.2652 4 14 4C13.7348 4 13.4804 3.89464 13.2929 3.70711C13.1054 3.51957 13 3.26522 13 3ZM5 3V1C5 0.734784 5.10536 0.48043 5.29289 0.292893C5.48043 0.105357 5.73478 0 6 0C6.26522 0 6.51957 0.105357 6.70711 0.292893C6.89464 0.48043 7 0.734784 7 1V3C7 3.26522 6.89464 3.51957 6.70711 3.70711C6.51957 3.89464 6.26522 4 6 4C5.73478 4 5.48043 3.89464 5.29289 3.70711C5.10536 3.51957 5 3.26522 5 3Z" fill="#201F20"/>
</g>
<defs>
<clipPath id="clip0_2037_60">
<rect width="24" height="24" fill="white"/>
</clipPath>
</defs>
</svg>
