<svg width="24" height="24" viewBox="0 0 24 24" fill="none" xmlns="http://www.w3.org/2000/svg">
<path d="M14.2847 14.7064L13.2924 18.1771C12.9206 19.4762 11.0794 19.4762 10.7076 18.1771L9.71644 14.7064C9.65369 14.4868 9.53603 14.2869 9.37456 14.1254C9.2131 13.964 9.01316 13.8463 8.79361 13.7836L5.32292 12.7924C4.02379 12.4206 4.02379 10.5794 5.32292 10.2076L8.79361 9.21644C9.01316 9.15369 9.2131 9.03603 9.37456 8.87456C9.53603 8.7131 9.65369 8.51316 9.71644 8.29361L10.7076 4.82292C11.0794 3.52379 12.9206 3.52379 13.2924 4.82292L14.2836 8.29361C14.3463 8.51316 14.464 8.7131 14.6254 8.87456C14.7869 9.03603 14.9868 9.15369 15.2064 9.21644L18.6771 10.2076C19.9762 10.5794 19.9762 12.4206 18.6771 12.7924L15.2064 13.7836C14.9868 13.8463 14.7869 13.964 14.6254 14.1254C14.464 14.2869 14.3463 14.4868 14.2836 14.7064M20.4779 20.1415L20.0568 21.8303C20.0009 22.0566 19.6794 22.0566 19.6223 21.8303L19.2001 20.1415C19.1902 20.1023 19.1699 20.0665 19.1413 20.0379C19.1127 20.0093 19.0769 19.989 19.0377 19.9791L17.3488 19.5568C17.1226 19.5009 17.1226 19.1794 17.3488 19.1223L19.0377 18.7001C19.0769 18.6902 19.1127 18.6699 19.1413 18.6413C19.1699 18.6127 19.1902 18.5769 19.2001 18.5377L19.6223 16.8488C19.6783 16.6226 19.9997 16.6226 20.0568 16.8488L20.4791 18.5377C20.489 18.5769 20.5093 18.6127 20.5379 18.6413C20.5665 18.6699 20.6023 18.6902 20.6415 18.7001L22.3303 19.1223C22.5566 19.1783 22.5566 19.4997 22.3303 19.5568L20.6415 19.9791C20.6023 19.989 20.5665 20.0093 20.5379 20.0379C20.5093 20.0665 20.4878 20.1023 20.4779 20.1415ZM4.79878 4.4623L4.37769 6.15116C4.32169 6.37739 3.99915 6.37739 3.94315 6.15116L3.52093 4.4623C3.51104 4.42309 3.49072 4.38729 3.46213 4.3587C3.43354 4.33011 3.39775 4.30979 3.35854 4.2999L1.66967 3.87769C1.44344 3.82169 1.44344 3.49915 1.66967 3.44315L3.35854 3.02093C3.39775 3.01104 3.43354 2.99072 3.46213 2.96213C3.49072 2.93354 3.51104 2.89775 3.52093 2.85854L3.94315 1.16967C3.99915 0.943443 4.32169 0.943443 4.37769 1.16967L4.7999 2.85854C4.80979 2.89775 4.83011 2.93354 4.8587 2.96213C4.88729 2.99072 4.92309 3.01104 4.9623 3.02093L6.65116 3.44315C6.87739 3.49915 6.87739 3.82169 6.65116 3.87769L4.9623 4.2999C4.92309 4.30979 4.88729 4.33011 4.8587 4.3587C4.83011 4.38729 4.80867 4.42309 4.79878 4.4623Z" stroke="#858689" stroke-width="2" stroke-miterlimit="10" stroke-linecap="round" stroke-linejoin="round"/>
</svg>
